<svg xmlns="http://www.w3.org/2000/svg" viewBox="0 0 600 165" width="600" height="165" role="img" aria-label="MERV — Measuring Renewables Uptake and Value">
<path d="M20.89887640449438 152.0V20.0H39.067415730337075L63.353932584269664 89.8932584269663H63.7247191011236L87.82584269662922 20.0H106.17977528089888V152.0H87.26966292134831V71.7247191011236H86.89887640449439L68.17415730337079 128.45505617977528H58.71910112359551L40.17977528089888 71.7247191011236H39.80898876404494V152.0ZM132.97752808988764 152.0V20.0H189.3370786516854V37.79775280898876H151.8876404494382V76.54494382022472H184.5168539325843V94.34269662921348H151.8876404494382V133.08988764044943H189.3370786516854V152.0ZM229.48314606741576 37.79775280898876V78.95505617977528H240.2359550561798Q245.24157303370788 78.95505617977528 248.20786516853934 77.56460674157303Q251.1741573033708 76.17415730337078 252.8426966292135 73.57865168539325Q254.32584269662925 70.98314606741573 254.88202247191015 67.18258426966293Q255.43820224719104 63.382022471910105 255.43820224719104 58.376404494382015Q255.43820224719104 53.370786516853926 254.88202247191015 49.57022471910112Q254.32584269662925 45.76966292134831 252.65730337078654 42.98876404494382Q249.13483146067418 37.79775280898876 239.30898876404495 37.79775280898876ZM210.5730337078652 152.0V20.0H240.97752808988767Q274.3483146067416 20.0 274.3483146067416 58.747191011235955Q274.3483146067416 70.42696629213482 270.73314606741576 78.58426966292134Q267.1179775280899 86.74157303370787 258.03370786516854 91.74719101123596L278.42696629213486 152.0H258.4044943820225L240.7921348314607 95.64044943820224H229.48314606741576V152.0ZM362.69662921348316 20.0 335.6292134831461 152.0H318.9438202247191L292.061797752809 20.0H312.0842696629214L327.10112359550567 112.14044943820224H327.4719101123596L342.6741573033708 20.0Z" fill="#0f2e3d"/>
<g transform="translate(412,8) scale(1.0)">
  <path d="M22,150 V92 M160,150 V92" fill="none" stroke="#0f2e3d" stroke-width="13" stroke-linecap="round"/>
  <path d="M6,96 L78,24 L172,96" fill="none" stroke="#0f2e3d" stroke-width="13" stroke-linecap="round" stroke-linejoin="round"/>
  <g transform="translate(89.1,16.1) rotate(37.5)"><rect x="0" y="-11" width="27" height="22" rx="4" fill="#0f2e3d"/><rect x="30" y="-11" width="27" height="22" rx="4" fill="#0f2e3d"/><rect x="60" y="-11" width="27" height="22" rx="4" fill="#0f2e3d"/></g>
  <rect x="50" y="96" width="94" height="54" rx="7" fill="#cfe6e2" stroke="#87949c" stroke-width="3"/>
  <circle cx="97" cy="123" r="17.5" fill="#ffffff" stroke="#0f2e3d" stroke-width="3.5"/>
  <path d="M97,123 C104,117 103,110 97,106.5 M97,123 C89,124 84,129 86,136 M97,123 C103,128 110,128 113,122" fill="none" stroke="#0f2e3d" stroke-width="3.6" stroke-linecap="round"/>
  <circle cx="97" cy="123" r="4.2" fill="#0f2e3d"/>
</g>
</svg>
