<svg xmlns="http://www.w3.org/2000/svg" viewBox="0 0 176 56" width="176" height="56" role="img" aria-label="MERV — Measuring Renewables Uptake and Value">
  <rect x="4" y="4" width="48" height="48" rx="11" fill="#0f2e3d"/>
  <polygon points="12,40 22,24 46,24 36,40" fill="#1277a7"/>
  <g stroke="#ffffff" stroke-width="1.5" stroke-opacity="0.95">
    <line x1="17" y1="32" x2="41" y2="32"/>
    <line x1="20" y1="24" x2="18" y2="27.2"/><line x1="18" y1="27.2" x2="15" y2="32"/><line x1="15" y1="32" x2="12" y2="40"/>
    <line x1="30" y1="24" x2="25" y2="32"/><line x1="25" y1="32" x2="20" y2="40"/>
    <line x1="38" y1="24" x2="33" y2="32"/><line x1="33" y1="32" x2="28" y2="40"/>
  </g>
  <polyline points="13,20 22,14 30,17 44,9" fill="none" stroke="#5fd39a" stroke-width="3" stroke-linecap="round" stroke-linejoin="round"/>
  <polygon points="44,9 36,9.5 43,16" fill="#5fd39a"/>
  <text x="63" y="41" font-family='-apple-system, BlinkMacSystemFont, "Segoe UI", Roboto, "Helvetica Neue", Arial, sans-serif' font-size="34" font-weight="800" letter-spacing="0.5" fill="#0f2e3d">MERV</text>
</svg>
